<svg width="56" height="57" viewBox="0 0 56 57" fill="none" xmlns="http://www.w3.org/2000/svg">
<path d="M22.225 52.2186C22.05 52.2186 21.7 52.0436 21.525 52.0436L15.75 46.2686C15.4 45.9186 15.4 45.3936 15.75 45.0436L18.725 41.1936L15.225 37.6936L11.55 40.8436C11.2 41.1936 10.675 41.0186 10.325 40.8436L4.54998 35.0686C4.37498 34.8936 4.19998 34.5436 4.37498 34.1936C4.54998 33.8436 4.72498 33.6686 4.89998 33.4936L18.55 28.4186C18.9 28.2436 19.25 28.4186 19.425 28.5936L27.825 36.9936C28 37.1686 28.175 37.5186 28 37.8686L22.925 51.5186C22.75 51.8686 22.575 52.0436 22.225 52.0436C22.4 52.2186 22.225 52.2186 22.225 52.2186ZM17.675 45.5686L21.875 49.7686L26.25 38.0436L18.725 30.3436L6.99998 34.7186L11.2 38.9186L15.05 35.9436C15.225 35.5936 15.75 35.5936 16.1 35.9436L20.65 40.4936C21 40.8436 21 41.3686 20.65 41.7186L17.675 45.5686Z" fill="#F5D15F"/>
<path d="M12.9498 50.9936C12.7748 50.9936 12.4248 50.8187 12.2498 50.8187L5.77483 44.3437C5.59983 44.1687 5.42483 43.9937 5.59983 43.6437C5.59983 43.4687 5.77483 43.1187 5.94983 42.9437L14.8748 35.9437C15.2248 35.5937 15.7498 35.5937 16.0998 35.9437L20.6498 40.4936C20.9998 40.8436 20.9998 41.3687 20.6498 41.7187L13.6498 50.6437C13.4748 50.8187 13.2998 50.9936 12.9498 50.9936ZM7.87483 43.6437L12.9498 48.7187L18.8998 41.1937L15.3998 37.6937L7.87483 43.6437Z" fill="#F2E8C9"/>
<path d="M27.2999 38.5686C27.1249 38.5686 26.7749 38.5686 26.5999 38.3936L18.1999 29.9936C18.0249 29.8186 18.0249 29.6436 18.0249 29.2936C18.0249 28.9436 18.1999 28.7686 18.1999 28.5936L40.0749 6.89363C41.4749 5.49363 43.5749 4.79363 45.6749 4.96863L50.3999 5.49363C50.7499 5.49363 51.0999 5.84363 51.0999 6.19363L51.6249 10.9186C51.7999 13.0186 51.0999 14.9436 49.6999 16.5186L27.8249 38.3936C27.6499 38.5686 27.4749 38.5686 27.2999 38.5686ZM20.1249 29.2936L27.2999 36.4686L48.4749 15.2936C49.5249 14.2436 50.0499 12.6686 49.8749 11.0936L49.3499 7.06863L45.3249 6.54363C43.7499 6.36863 42.3499 6.89363 41.1249 7.94363L20.1249 29.2936Z" fill="#F5D15F"/>
<path d="M37.45 16.3436C37.275 16.3436 36.925 16.1686 36.75 15.9936C36.4 15.6436 36.4 15.1186 36.75 14.7686L40.25 11.6186C40.6 11.2686 41.125 11.2686 41.475 11.6186C41.825 11.9686 41.825 12.4936 41.475 12.8436L37.975 15.9936C37.975 16.3436 37.8 16.3436 37.45 16.3436Z" fill="#F2E8C9"/>
</svg>
